<svg width="42" height="42" viewBox="0 0 42 42" fill="none" xmlns="http://www.w3.org/2000/svg">
<circle cx="21" cy="21" r="21" fill="#FFB904"/>
<g clip-path="url(#clip0_8_40)">
<path d="M25.1667 13.5C25.3855 13.2811 25.6454 13.1075 25.9313 12.9891C26.2173 12.8706 26.5238 12.8096 26.8333 12.8096C27.1429 12.8096 27.4493 12.8706 27.7353 12.9891C28.0213 13.1075 28.2811 13.2811 28.5 13.5C28.7189 13.7189 28.8925 13.9787 29.0109 14.2647C29.1294 14.5506 29.1903 14.8571 29.1903 15.1667C29.1903 15.4762 29.1294 15.7827 29.0109 16.0687C28.8925 16.3546 28.7189 16.6145 28.5 16.8333L17.25 28.0833L12.6667 29.3333L13.9167 24.75L25.1667 13.5Z" stroke="#1E1E1E" stroke-width="2" stroke-linecap="round" stroke-linejoin="round"/>
</g>
<defs>
<clipPath id="clip0_8_40">
<rect width="20" height="20" fill="white" transform="translate(11 11)"/>
</clipPath>
</defs>
</svg>
